<global>
amp_veltrack=0
ampeg_release=0.50

<group>
group_label=PP
lpc_hicc1=42
lpc_locc1=0

<region>
hikey=a3
hivel=127
lokey=g#3
lovel=0
lpc=nY5yQlDn48KNOhxCZZHAQBbKmEEMSp7A2GgMQJSNh8DK+o/AWTLEv78Uo71vSCa+2O6cP5LFej3urJU/RjURQGOoLr8EKoU/SCiLvwMHBcCvwaK8wvAkvybOoT7ZTqk/
lpc_rms=-34.05
pitch_keycenter=a3
sample=Alto_nonvib_PP_A3.opus

<region>
hikey=a4
hivel=127
lokey=g#4
lovel=0
lpc=BuuyQi7nO8Onq+dCotMewvUtgkIUqUjCAOGLQZdItr99MZjBu2mcQfF/tsBeQJvBIVb2QeX1XcEuPDHAAmIqQcjzDcEqxfpAT2itwGAzqD5zH+K/XeV/QOVTl7/58os/
lpc_rms=-25.31
pitch_keycenter=a4
sample=Alto_nonvib_PP_A4.opus

<region>
hikey=a5
hivel=127
lokey=g#5
lovel=0
lpc=m8ASQuH8C8Kza41BHVVkwcBjnkE9R4DBtHpUQXDPFMEiXoVA+X8Uv4eM10CQjVDBzrNoQRKEzcD4R96+5ScqQPYbJED48rrAU8/NQGNTo8BwTgxBLSbFwNfeoECRdHbB
lpc_rms=-26.69
pitch_keycenter=a5
sample=Alto_nonvib_PP_A5.opus

<region>
hikey=b3
hivel=127
lokey=a#3
lovel=0
lpc=Pya8QpibPMPU4a1CE08rQGxSykGaGIjBuAKOQF/xvcABKTnAMfZuPzKFib+oFbe/XzB4QAOinL8DilU/tFZwQMvyncDJqLu/gZ0MuxP0Hr/3h0tAHHbrPn64H79pcRk/
lpc_rms=-29.16
pitch_keycenter=b3
sample=Alto_nonvib_PP_B3.opus

<region>
hikey=b4
hivel=127
lokey=a#4
lovel=0
lpc=kyVaQYUPucFf7zRBwtL3wBneLEGlmuTA0aT3QJCeocB6uAZAlvHrv0VZzz+3lmzAhPkiQPfOM79/PaW/O5s/QHvdRL9f2qQ/i40Gv6UmKz90nPm/jer3Pm6xHMAWoD9A
lpc_rms=-38.59
pitch_keycenter=b4
sample=Alto_nonvib_PP_B4.opus

<region>
hikey=b5
hivel=127
lokey=a#5
lovel=0
lpc=FEKIQQXS6sCVJW8/jKMiwNX6W0By8RK+HcU0Pm4Ciz6i2CQ/Urelv0SDZ0Chwvu/5TW0P3VnOj9EhoG/y5GSP/Nw3j6BEuk9V+HnP2uuDL+7IDm/7jq9wKRcpcD2sGdA
lpc_rms=-32.51
pitch_keycenter=B5
sample=Alto_nonvib_PP_B5.opus

<region>
hikey=c#4
hivel=127
lokey=c4
lovel=0
lpc=qK+TQvy0EMPigIZCfA2XwC9NtkE5jy7BJx2IQIgFoL+oiArBJaMQQF7s5b9uQz3AqkvnQOjZgsCjfuq+xHfTQPQ8CMD8bOe//MuBP+ksob+u1QA/NpVIv83pgcBgsqxA
lpc_rms=-31.11
pitch_keycenter=c#4
sample=Alto_nonvib_PP_C#4.opus

<region>
hikey=c#5
hivel=127
lokey=c5
lovel=0
lpc=ABJnQvOGpcKvyBJCtHTywTVXLEIg8QbCVuW2QWu3CD8HnoXASWfGPyjHHkCq0xDB4igJQYScbMCu44PALywcQdqwh7+MOYtAmPHCwBCl+UDuAgbBnAlKvz0MRcBS7UBB
lpc_rms=-28.10
pitch_keycenter=c#5
sample=Alto_nonvib_PP_C#5.opus

<region>
hikey=d#4
hivel=127
lokey=d4
lovel=0
lpc=DEVtQnnt+sLZp4lC/D4ewZ3b10GnmJ3BgvBPQMUuxD7yPRPB29rXQMUSWD9kxdfA9HHlQEsNtL/mBxTA9Ka/QGo2ccBis7+/qNMEQC39I8B6OhJA6I3DPoq8j8BT+35A
lpc_rms=-31.48
pitch_keycenter=d#4
sample=Alto_nonvib_PP_D#4.opus

<region>
hikey=d#5
hivel=127
lokey=d5
lovel=0
lpc=LekfQzlXYsPHd9RCnEaRwlRU1kLE8nHCTFFaQo0CcsJxU01C+cOswV9OKUJ1PlfCNxrqQWbzhMEYYmNAHrI9Qn0q/cGwqMVBNWk2wY7rLj9OSM3AGYYuQPmbfsCA+fxB
lpc_rms=-17.45
pitch_keycenter=d#5
sample=Alto_nonvib_PP_D#5.opus

<region>
hivel=127
key=f3
lovel=0
lpc=AI65Qu9cIMMSyCBCBhb9QPdu30HFCSLAiAAZQJbde8DOTxm/anHIv4kSJcAdsrq/zmFfPl9qiz4UZ1Q/OhqBP0i2HL7+bHq9ldC/P2dJ0T+xeYK/OwURwJjC28D8QuNA
lpc_rms=-31.34
sample=Alto_nonvib_PP_F3.opus

<region>
hikey=f4
hivel=127
lokey=e4
lovel=0
lpc=x4rkQlcfcsOnQQ9DvEwZwmJJjUJOUT3Ch6AzQTGTacHiLgPAT+CYQO0l10Cka4DBIrB0QUoQr8BUkS8/jQdWQVjpt8GubSxBG1KxQJR/G8FibNdA6M1yP8MnK8FOEw1B
lpc_rms=-24.42
pitch_keycenter=f4
sample=Alto_nonvib_PP_F4.opus

<region>
hikey=f5
hivel=127
lokey=e5
lovel=0
lpc=sOOaQaXn0sGls2NBYMIrwYK6aUFSwxTBhHzlQEsNVsCvW4o+2mGcP+m0NEBBekrABSFoQBP7b75bPFPA2MC0QCApjcDgo5FANKnGvx9hG0B1+Ym/020/PxqAPT/7FJM/
lpc_rms=-36.32
pitch_keycenter=f5
sample=Alto_nonvib_PP_F5.opus

<region>
hikey=g3
hivel=127
lokey=f#3
lovel=0
lpc=5Dr5QbxacMIbz7ZBMh8zQHO8FkExuF7Al6jyP+4kF8Dn0yXAdtT4vUctwD4xwUy/z99YP6sfnr9AO2g/juGTPz0IRL3MsYg/IC+KvjB/sL+TuMu92no5v+zIMT8RItk+
lpc_rms=-39.47
pitch_keycenter=g3
sample=Alto_nonvib_PP_G3.opus

<region>
hikey=g4
hivel=127
lokey=f#4
lovel=0
lpc=yCkqQnfbt8Kvf2RCa06PweMZ20Ebu5nBbE86QVzWgsHbPtNA2JbvP5gZWD+z2BnBr/1TQRlU78DxEwg/omofQR8QWcFfNKJAy4dcv2i5jr8ADpZAgly3vzWKKcDkYu0/
lpc_rms=-31.54
pitch_keycenter=g4
sample=Alto_nonvib_PP_G4.opus

<region>
hikey=g5
hivel=127
lokey=f#5
lovel=0
lpc=BrqrQtVN0sIZmk1CkukNwqepgkKc4R7CwwRqQeyQ+ED4V2LBcI6cQd+iokDrcWfBPqGxQTNXAcGgeH8/FWMqQUHJIb+ADr9A2ZZrP0z9BsCH5vxA/wIZPzhvvkEaB6DB
lpc_rms=-21.18
pitch_keycenter=g5
sample=Alto_nonvib_PP_G5.opus

<group>
group_label=MF
lpc_hicc1=84
lpc_locc1=43

<region>
hikey=a3
hivel=127
lokey=g#3
lovel=0
lpc=HWZTQgY/BsOgPt9CP3olwsueCUIk0ODB8/KiQErtw8AvTeBAJAqYQNUd5MBWOQHBahGlQT4yesERzHRA5f7SQFbGIcG+NNNAuy4Rvlw8xsBIb/1ARD1xwAO/bb9k65U/
lpc_rms=-27.93
pitch_keycenter=A3
sample=Alto_nonvib_MF_A3.opus

<region>
hikey=a4
hivel=127
lokey=g#4
lovel=0
lpc=M/UlQpbkxcKLVaxCnSoqwpcLEUKnYCLCOWj4Qdj9lcGxTBxBoIuBP7zT6j+Mf7vBo/MEQp3Bi8F/MsPA50QWQWWqmECS9LDA4RYRv62Qz7+zVbBA+cQewPioXcBl7mJA
lpc_rms=-21.46
pitch_keycenter=A4
sample=Alto_nonvib_MF_A4.opus

<region>
hikey=a5
hivel=127
lokey=g#5
lovel=0
lpc=UQdrQiDuWMJ/kwRCoAOgwcj3oUG5eYfBMWTjQRN6mcFrACRB+jvWwLOZi0HcvcHBJAYSQr/8vMHbbEJBlrgtwKfSyUB/aS3B7KizQQ0SMMEmy/tAnUnuwN7vikHEFOTB
lpc_rms=-15.88
pitch_keycenter=A5
sample=Alto_nonvib_MF_A5.opus

<region>
hikey=b3
hivel=127
lokey=a#3
lovel=0
lpc=33sUQho7ucLa5ZxCSD4WwjKxGEJ1ChzCwCDfQTZVocF3YhZBOkR1P01jk75ueCPBhcyBQVB1NcGct7y/4axPQWjybMGfNzhBEo3DwEkBkj/qsxXApWOaQHM9Y8BVE50/
lpc_rms=-27.95
pitch_keycenter=B3
sample=Alto_nonvib_MF_B3.opus

<region>
hikey=b4
hivel=127
lokey=a#4
lovel=0
lpc=Gtl+QXPeD8KDTelBpCVMwSC/LEH/hkHBxIAIQZYjn8CTJGBAoAIAPeJ9XL9TeXXA06kHQT65DMGfKYtA7NpePqfYUL6JOiG/rMzfPu4wlL/nAoBAb0ZvwMPGYr8kSgZA
lpc_rms=-28.41
pitch_keycenter=B4
sample=Alto_nonvib_MF_B4.opus

<region>
hikey=b5
hivel=127
lokey=a#5
lovel=0
lpc=JIIVQrgNpcEqgQ5AW8vewGsbG0GGUTDAMqvZQN9+SUD06jrAf4eyPnE9OEH2+UXAi//AQDh5hD4ESirA3o/kP5xl80B8r2w/gGYCPi4DZ0Dt1MY/DvNHwfvfGMF/W2hB
lpc_rms=-17.27
pitch_keycenter=B5
sample=Alto_nonvib_MF_B5.opus

<region>
hikey=c#4
hivel=127
lokey=c4
lovel=0
lpc=DXwSQjAivsJlVapCPLckwnm8HUKB8RTCgN+HQU+YBcEBNdBAymw/wDsgt0BJWI7BaN7XQda8s8H8x6pAgnDMQGMyZ8AYxVxAJAWhvWAwAsFVhfVAlXMiwQdsQUHy3pLA
lpc_rms=-25.75
pitch_keycenter=C#4
sample=Alto_nonvib_MF_C#4.opus

<region>
hikey=c#5
hivel=127
lokey=c5
lovel=0
lpc=C5v1QW5YXsK1yBdCtC60wa3CyEHnZZbBhuNBQWdRysAfvRnADqL3QHrvWb8+TbLAhbbPQBbqFsH8kKFAKOEFQY4jUMGeIBBBZF+7vy323kATM/3ABVQQQD7d58AengRB
lpc_rms=-22.75
pitch_keycenter=C#5
sample=Alto_nonvib_MF_C#5.opus

<region>
hikey=d#4
hivel=127
lokey=d4
lovel=0
lpc=P8GSQrt0NsPGFyBDe4CgwpWKkULvk5DCH2NAQvl2CMLFE89Bnfk2wXhhTkEySx3CAa9XQl70KcKHWU9BscdpQeS3YcG5DU9BxSLvwM/BSMHw+mVB15YAwdJX00CApSXA
lpc_rms=-18.22
pitch_keycenter=D#4
sample=Alto_nonvib_MF_D#4.opus

<region>
hikey=d#5
hivel=127
lokey=d5
lovel=0
lpc=j4bNQhOzGcNNa9lCwOqxwgl+oUJDWWLCRfFRQjD1ZMH7sE7A3QtJQRd07sCeUI8/snkkQSsjxsEANShBJarTQXPvSMFPIK5B7oWawTfJu0GNnDbCU2fKQbjF7z71jJNB
lpc_rms=-12.01
pitch_keycenter=D#5
sample=Alto_nonvib_MF_D#5.opus

<region>
hivel=127
key=F3
lovel=0
lpc=kRJzQp87EcO2ZM9CiOChwXeDZUGxDJrBwyq8QJbWKUDAVn2/NE1KQMCK2sAhkqPAaHwoQbMnWMDDz3DAO2DhQGlbBcC9Pog/YW+iPyamrsCePs0/AV63P9QrR8BQIRNA
lpc_rms=-29.90
sample=Alto_nonvib_MF_F3.opus

<region>
hikey=f4
hivel=127
lokey=e4
lovel=0
lpc=+vAiQiSZ4MK+J+NCeNZywoBzM0Lf9jbCL7EAQkGSzMHzbKpBXjEcwWuGHUELvaLBTiqrQU8gZsGzc35Ae7APQTx1ecEHx4pBlsV9wYYPr0AnPhe9967lQF+mEMHfEU9A
lpc_rms=-22.70
pitch_keycenter=F4
sample=Alto_nonvib_MF_F4.opus

<region>
hikey=f5
hivel=127
lokey=e5
lovel=0
lpc=xJhqQeSwr8ERLHxBuZILwSgmGEFW1qbAIVrAQHHYAcHEhNJA6rg6P7OGPz9KU0XAaSaOQH8uJcAH0ApAvUh8QMVVoMAPAxNAp2T6P3OcOj9s4RHAXiXSQP8bCcEwxO9A
lpc_rms=-29.26
pitch_keycenter=F5
sample=Alto_nonvib_MF_F5.opus

<region>
hikey=g3
hivel=127
lokey=f#3
lovel=0
lpc=4TQ5Qnl268JBn8NCKCAAwrPtxkEGE+jB3u9bQe3V2b8lrf7APi9JQb7Zu8BDpq/AO8s9QUdAP8Eo/UZABE8ZQfEsAcG8nvE/3krHvizCW8Bt0J9AgP8wwPYwqT+GGgG+
lpc_rms=-30.11
pitch_keycenter=G3
sample=Alto_nonvib_MF_G3.opus

<region>
hikey=g4
hivel=127
lokey=f#4
lovel=0
lpc=BQEOQjoOrcKR+ZhCMa4vwigvHkKKuQPC3ovPQWEuycF85EpBfDt6Pgrmg0D72H3BuFPBQeUnx8FO8XRBf2UMwM7kI8DhyV1Am2YYwB6yXMDAOLA/PwqUQF+EccASG5o/
lpc_rms=-23.07
pitch_keycenter=G4
sample=Alto_nonvib_MF_G4.opus

<region>
hikey=g5
hivel=127
lokey=f#5
lovel=0
lpc=LEYHQldwH8I+kcBBXB5XwReBZkHYTtDA+xfXQHMWXb/3cXRAaJZ5QDaafr6dcRDBjgFjQbx+2b3ge0s//RJ8QEX9DcE/RAtBev+ZQLIrE7/f4Z+96CCCQFjON0AvkgDA
lpc_rms=-22.06
pitch_keycenter=G5
sample=Alto_nonvib_MF_G5.opus

<group>
group_label=FF
lpc_hicc1=127
lpc_locc1=85

<region>
hikey=a3
hivel=127
lokey=g#3
lovel=0
lpc=yTE6QnYi8cL3v9dCUNNbwh1MbkIDgHfCSQktQp8hM8KEFQ1CprLswH85zkDuZLfBdz+lQZu/QcHLxuRAYmhhQZry38Fvjl5BVXaRwN74KUF4tFnBxWj4QCs1M7/MCia/
lpc_rms=-22.37
pitch_keycenter=A3
sample=Alto_nonvib_FF_A3.opus

<region>
hikey=a4
hivel=127
lokey=g#4
lovel=0
lpc=IL4cQnGkvsLjnKlCuGZHwsbMREJ5zijCBjrIQVb6UsHgjxzBC5ryQd71scHVty8/i92UQOW9AL+HKQ9BfNy3wCSpCMF8cM+/RSYQQZfB6ECk91zBsTiBQWfOssEOqkFB
lpc_rms=-16.87
pitch_keycenter=A4
sample=Alto_nonvib_FF_A4.opus

<region>
hikey=a5
hivel=127
lokey=g#5
lovel=0
lpc=IjtCQqSPNsJBA8hBsCfzwCZNQEFtNmLBZkN2Qbw26D0z6Q/BK340QcOFWkBLlGjBrBy+QfKyOcHBEaC+YW0mQa4mrMBh5o8/SmcKQZwBfMAemQE/RmIaQCz0SEHreM/B
lpc_rms=-13.69
pitch_keycenter=A5
sample=Alto_nonvib_FF_A5.opus

<region>
hikey=b3
hivel=127
lokey=a#3
lovel=0
lpc=zLXsQaoYkMLHd3FC6C7nwbv66kHw0wDC9N+tQXAgA8GwAoDAix6FQICtKUEtr6jBImawQbEmr8FqI29BbaghwAN6NcDRehJAF2Vwv7d2Ob81flPAYV+DQHw6MUA/3D3A
lpc_rms=-25.30
pitch_keycenter=B3
sample=Alto_nonvib_FF_B3.opus

<region>
hikey=b4
hivel=127
lokey=a#4
lovel=0
lpc=fdyTQc6pJ8JwlAlCll6dwds0pUH6wonBYMEpQcHhs8BgvGHAEzFIQeNXI8E9wZM/6MXkP/XG679Sx6w/2YUuQOXCTsABRak//brbv/yCX0AIm3TAF+OTQMZqxMB1S19A
lpc_rms=-24.36
pitch_keycenter=B4
sample=Alto_nonvib_FF_B4.opus

<region>
hikey=b5
hivel=127
lokey=a#5
lovel=0
lpc=tCL4QZaFnsFjNSVA1YuNwNYcB0Ee11TAA1eXQNOjOkC34vK/D80yQOcplkC7Mrm/oGVOQLeoP0Ci/cS/Zy8vQEGMV0D5CPE/QICwvxz6tECsk1s/apc5wYGtIcHLPX1B
lpc_rms=-17.12
pitch_keycenter=B5
sample=Alto_nonvib_FF_B5.opus

<region>
hikey=c#4
hivel=127
lokey=c4
lovel=0
lpc=JmoIQo2posKl8YNCE4QCwkjsE0KRpBvC07sJQr7jBsIJCsFB/hQzwStgJkGGYKzBBJPDQXZ5Y8FdGIZAvyaeQGkwFMHPPypAxUbFQJmhk8DsYkI+B1icv8vohD4qcI0/
lpc_rms=-20.92
pitch_keycenter=C#4
sample=Alto_nonvib_FF_C#4.opus

<region>
hikey=c#5
hivel=127
lokey=c5
lovel=0
lpc=cLLnQQ61XsLOghdCKEOgwSxCuUGucI7B+6hYQZYSMcGWxJu/gUFIQeYuhcDmFXLAAeDzP/dT1cBlxeNAqny7QMblIcF0/bNAPsuTv62WrUAEawfBsZQmQc+8h8FNUEFB
lpc_rms=-19.48
pitch_keycenter=C#5
sample=Alto_nonvib_FF_C#5.opus

<region>
hikey=d#4
hivel=127
lokey=d4
lovel=0
lpc=atBIQu9r/8Je2uZCC0ZuwneUZEIyXmjCwzomQoibAsLYx6RB2aEmwR+rVEGusKrB2FjVQZOKqsHnlPBArzfnQFJkS8Fh8hJBgvBQwG33MT++8UXAcr7bQCWk6MAQBVhA
lpc_rms=-16.80
pitch_keycenter=D#4
sample=Alto_nonvib_FF_D#4.opus

<region>
hikey=d#5
hivel=127
lokey=d5
lovel=0
lpc=pfaUQts26cLZmqFC/itxwpyuUUL15fvByV4SQof5uME/R71AIhPgQFBPRbxWG2jBU165QTjGd8HvYWfA1eCGQcx/9sAPQQ9CAUoVwvqxW0Fj1LXB533jQfbET8Hh6mdB
lpc_rms=-11.05
pitch_keycenter=D#5
sample=Alto_nonvib_FF_D#5.opus

<region>
hivel=127
key=F3
lovel=0
lpc=bzL4QXYenMJhqZJC1sAxwpuXCELLG9DBk1/BQbYSrsGhcB5A8G9CQVaxB8G0TyG/EbrtQJKDn8C5s+bAeb5wQdboNMEQejFA56ZJQL39aMBSUQa/cevKP82Sxz9mFLe/
lpc_rms=-27.59
sample=Alto_nonvib_FF_F3.opus

<region>
hikey=f4
hivel=127
lokey=e4
lovel=0
lpc=KlHjQZI4kMKYKItCmmcvwtqpGEKv6gPCIJDRQXKVpcEPDIk/wASDQcjzH8GOPy7AOImgQFA0j8C4ElE+kBX6QI2yHsFlXgFBIbt2wPHllz2P97rA6P1YQW69LMESq2JA
lpc_rms=-21.72
pitch_keycenter=F4
sample=Alto_nonvib_FF_F4.opus

<region>
hikey=f5
hivel=127
lokey=e5
lovel=0
lpc=url3QcI9o8ECIU9Bywb4wIgi/EC3QCvAUxhiPwM4Uj8Z8ifAt9jmQGE0jcB4SFlAFvSSP1DfjMAkRilAsVupQFqcdMBDG+2/OgpqQA3hI0C6xTPAi+WuQKEgx8A6wqlA
lpc_rms=-24.79
pitch_keycenter=F5
sample=Alto_nonvib_FF_F5.opus

<region>
hikey=g3
hivel=127
lokey=f#3
lovel=0
lpc=eGQzQgXW4cKSVdNCs2KAwg0jZkKepkvCz64jQhkCF8LB6rhBVLHxv+oNgr+FPSPB6yWaQZsbj8Hzcoc/GEx3QfecbsFLDA1BgMlrwLcjhr7Rgh/A8O1aQELEyz9K1du/
lpc_rms=-22.98
pitch_keycenter=G3
sample=Alto_nonvib_FF_G3.opus

<region>
hikey=g4
hivel=127
lokey=f#4
lovel=0
lpc=ktAAQm9rlMKCi39Chk8Xwuv68EH038TBzTu4QfsZgMHWxgBAMJaoQN6qo7/D3DTBEJGcQZ08g8GwHydBIDb+Pw6SB8FNRGO/DZJKQCIdOkA148rAZmrmQFUxmsBOd8s/
lpc_rms=-19.12
pitch_keycenter=G4
sample=Alto_nonvib_FF_G4.opus

<region>
hikey=g5
hivel=127
lokey=f#5
lovel=0
lpc=B0MyQlLHY8IFyx5CePqvwTAevEHY80fBgb58QZzgIcFoza1Ai+r+QGNXyD9mCJTATotPQX1U3MAraG0/+R9BQYzF48A1ThBB6/tyQKbpmcAJhYBAGjPoQJPEM0A836S/
lpc_rms=-15.25
pitch_keycenter=G5
sample=Alto_nonvib_FF_G5.opus

